<?xml version="1.0" encoding="iso-8859-1"?>
<!-- Generator: Adobe Illustrator 19.0.0, SVG Export Plug-In . SVG Version: 6.00 Build 0)  -->
<svg version="1.1" id="Capa_1" xmlns="http://www.w3.org/2000/svg" xmlns:xlink="http://www.w3.org/1999/xlink" x="0px" y="0px"
	 viewBox="0 0 512 512" style="enable-background:new 0 0 512 512;" xml:space="preserve">
<path style="fill:#FA684F;" d="M190.915,293.593l14.805,14.753c8.791,8.765,17.469,17.087,25.782,24.741l2.803,2.603v74.926
	l-43.39,18.77V293.593z"/>
<ellipse transform="matrix(-0.7071 0.7071 -0.7071 -0.7071 578.9544 350.2671)" style="fill:#FBC701;" cx="216.935" cy="295.039" rx="8.678" ry="104.309"/>
<path style="fill:#35D4B6;" d="M147.525,244.302l15.299,18.05c7.324,8.678,15.976,18.224,25.695,28.412l2.395,2.551v136.071
	l-43.39,18.77V244.302H147.525z"/>
<path style="fill:#FE2F75;" d="M234.305,336.08l14.31,12.201c10.9,9.615,22.589,18.302,34.938,25.973l14.753,8.678l-64,27.674
	L234.305,336.08L234.305,336.08z"/>
<path style="fill:#65C2ED;" d="M104.136,269.017l24.359-56.823l8.678,15.126c2.69,4.651,5.615,9.155,8.765,13.512l1.623,2.265
	v205.069l-43.39,18.779L104.136,269.017z"/>
<polygon style="fill:#2368B5;" points="60.971,369.733 87.483,307.877 104.136,269.017 104.136,466.935 60.746,485.714 "/>
<polygon style="fill:#FDCF00;" points="60.971,369.733 60.746,485.714 0,512 "/>
<g>
	<polygon style="fill:#66C1ED;" points="453.597,61.076 425.22,56.953 445.752,36.933 440.901,8.678 466.276,22.025 491.659,8.678 
		486.808,36.942 507.349,56.953 478.963,61.076 466.276,86.78 	"/>
	<path style="fill:#66C1ED;" d="M478.251,35.467l1.883-10.926l-9.789,5.163c-2.525,1.328-5.554,1.328-8.079,0l-9.815-5.163
		l1.883,10.926c0.477,2.812-0.451,5.684-2.499,7.68l-7.94,7.741l10.978,1.597c2.829,0.408,5.268,2.187,6.534,4.747l4.894,9.945
		l4.912-9.902c1.267-2.56,3.705-4.339,6.534-4.747l10.969-1.597l-7.958-7.775C478.711,41.16,477.765,38.287,478.251,35.467z"/>
</g>
<g>
	<path style="fill:#BCBDC1;" d="M279.656,324.495c6.127-5.163,12.548-9.962,19.239-14.371l-9.45-14.553
		c-7.359,4.842-14.414,10.119-21.14,15.811 M191.471,235.694c19.022-22.45,33.271-48.545,41.889-76.679l-16.592-5.094
		c-7.949,25.973-21.122,50.055-38.712,70.76"/>
	<path style="fill:#BCBDC1;" d="M238.063,140.982c6.352-29.271,6.587-59.548,0.677-88.914l-17.017,3.393
		c5.441,27.049,5.233,54.923-0.625,81.885L238.063,140.982z"/>
	<path style="fill:#BCBDC1;" d="M309.309,284.117l7.871,15.464c40.327-20.445,86.346-26.772,130.699-17.981l3.376-17.018
		C403.083,255.019,353.106,261.901,309.309,284.117z"/>
</g>
<polygon style="fill:#F09221;" points="277.695,69.424 295.051,69.424 295.051,43.39 321.085,43.39 321.085,26.034 295.051,26.034 
	295.051,0 277.695,0 277.695,26.034 251.661,26.034 251.661,43.39 277.695,43.39 "/>
<polygon style="fill:#E1524A;" points="485.966,190.915 468.61,190.915 468.61,216.949 442.576,216.949 442.576,234.305 
	468.61,234.305 468.61,260.339 485.966,260.339 485.966,234.305 512,234.305 512,216.949 485.966,216.949 "/>
<g>
	<path style="fill:#BCBDC1;" d="M303.729,182.237c-0.035,11.568-7.671,21.747-18.77,25.01l4.834,16.67
		c18.501-5.441,31.232-22.398,31.293-41.68c-0.035-12.028,8.192-22.502,19.89-25.314c2.013-0.477,4.079-0.72,6.144-0.72h8.678
		c23.951-0.026,43.364-19.439,43.39-43.39h-17.356c0,14.379-11.654,26.034-26.034,26.034h-8.678
		C323.159,138.847,303.729,158.277,303.729,182.237z"/>
	<path style="fill:#BCBDC1;" d="M225.627,251.661h17.356c0-14.379,11.655-26.034,26.034-26.034v-17.356
		C245.066,208.297,225.653,227.71,225.627,251.661z"/>
</g>
<g>
	<rect x="494.64" y="121.49" style="fill:#FBC701;" width="17.356" height="17.356"/>
	<rect x="364.48" y="338.44" style="fill:#FBC701;" width="17.356" height="17.356"/>
	<rect x="130.17" y="104.14" style="fill:#FBC701;" width="17.356" height="17.356"/>
	
		<rect x="347.115" y="86.778" transform="matrix(0.0322 -0.9995 0.9995 0.0322 248.9295 447.9915)" style="fill:#FBC701;" width="17.356" height="17.356"/>
</g>
<rect x="364.48" y="26.03" style="fill:#BCBDC1;" width="17.356" height="17.356"/>
<rect x="373.15" y="208.27" style="fill:#FBC701;" width="17.356" height="17.356"/>
<g>
	<rect x="425.22" y="130.17" style="fill:#BCBDC1;" width="17.356" height="17.356"/>
	<rect x="468.61" y="321.08" style="fill:#BCBDC1;" width="17.356" height="17.356"/>
	<rect x="277.69" y="130.17" style="fill:#BCBDC1;" width="17.356" height="17.356"/>
	<rect x="156.2" y="8.678" style="fill:#BCBDC1;" width="17.356" height="17.356"/>
</g>
<g>
</g>
<g>
</g>
<g>
</g>
<g>
</g>
<g>
</g>
<g>
</g>
<g>
</g>
<g>
</g>
<g>
</g>
<g>
</g>
<g>
</g>
<g>
</g>
<g>
</g>
<g>
</g>
<g>
</g>
</svg>
